# xmcd CD database file
#
# Track frame offsets:
#	150
#	14672
#	34925
#	54502
#	69597
#	90035
#	106835
#	123447
#	141137
#	159647
#	175407
#	191712
#
# Disc length: 2907 seconds
#
# Revision: 3
# Processed by: cddbd v1.4b42PL1 Copyright (c) Steve Scherf et al.
# Submitted via: CDex 1.40Beta8
#
DISCID=a00b590c
DTITLE=Asa De Águia - Tá Reclamando De Quê?
DYEAR=1900
DGENRE=Pop
TTITLE0=Essa é bala
TTITLE1=Pérola
TTITLE2=Na boca do povo
TTITLE3=Tem que ser você
TTITLE4=Take it easy
TTITLE5=Sabor legal
TTITLE6=Mistura fina
TTITLE7=Da cama pro computador
TTITLE8=Chegue pra cá
TTITLE9=Bad boy
TTITLE10=Manivela
TTITLE11=Não tem lua
EXTD=ID3G: 13
EXTT0=
EXTT1=
EXTT2=
EXTT3=
EXTT4=
EXTT5=
EXTT6=
EXTT7=
EXTT8=
EXTT9=
EXTT10=
EXTT11=
PLAYORDER=
